<svg width="164" height="48" viewBox="0 0 164 48" fill="none" xmlns="http://www.w3.org/2000/svg">
<rect width="164" height="48" rx="7" fill="#3B5998"/>
<path fill-rule="evenodd" clip-rule="evenodd" d="M38.3773 17.098C37.8106 16.9847 37.0453 16.9 36.564 16.9C35.2606 16.9 35.176 17.4667 35.176 18.3733V19.9873H38.434L38.15 23.3307H35.176V33.5H31.0967V23.3307H29V19.9873H31.0967V17.9193C31.0967 15.0867 32.428 13.5 35.7706 13.5C36.932 13.5 37.782 13.67 38.8866 13.8967L38.3773 17.098Z" fill="white"/>
<path d="M56.9727 16.5811H50.2402V29H52.376V23.8848H56.2344V21.8721H52.376V18.5938H56.9727V16.5811ZM65.4277 21.2393C64.6279 20.1494 63.5557 19.6045 62.2109 19.6045C60.9189 19.6045 59.8379 20.0615 58.9854 20.9756C58.124 21.8984 57.6934 23.041 57.6934 24.4033C57.6934 25.7744 58.124 26.917 58.9854 27.8398C59.8379 28.7627 60.9189 29.2197 62.2109 29.2197C63.5557 29.2109 64.6279 28.666 65.4277 27.5762V29H67.4492V19.8242H65.4277V21.2393ZM62.6064 27.2686C61.7891 27.2686 61.1123 26.9961 60.5762 26.4512C60.0312 25.9062 59.7588 25.2207 59.7588 24.4033C59.7588 23.5859 60.0312 22.9092 60.5762 22.3643C61.1123 21.8193 61.7891 21.5469 62.6064 21.5469C63.4062 21.5469 64.083 21.8193 64.6191 22.3643C65.1553 22.9092 65.4277 23.5859 65.4277 24.4033C65.4277 25.2207 65.1553 25.9062 64.6191 26.4512C64.083 26.9961 63.4062 27.2686 62.6064 27.2686ZM74.208 29.2197C75.4648 29.2197 76.5459 28.8418 77.4512 28.0859C78.3477 27.3301 78.8838 26.3545 79.0508 25.168H76.959C76.792 25.792 76.458 26.293 75.9658 26.6797C75.4648 27.0752 74.8848 27.2686 74.208 27.2686C73.4082 27.2686 72.7314 26.9961 72.1865 26.4512C71.6328 25.9062 71.3604 25.2207 71.3604 24.4033C71.3604 23.5859 71.6328 22.9092 72.1865 22.3643C72.7314 21.8193 73.4082 21.5469 74.208 21.5469C74.876 21.5469 75.4561 21.7402 75.957 22.1357C76.458 22.5312 76.792 23.0322 76.959 23.6562H79.0508C78.8838 22.4697 78.3477 21.4941 77.4512 20.7383C76.5459 19.9824 75.4648 19.6045 74.208 19.6045C72.8018 19.6045 71.6328 20.0615 70.7012 20.9756C69.7607 21.8984 69.2949 23.041 69.2949 24.4033C69.2949 25.7744 69.7607 26.917 70.7012 27.8398C71.6328 28.7627 72.8018 29.2197 74.208 29.2197ZM90.0547 24.4297C90.0547 23.0498 89.5889 21.8984 88.6572 20.9756C87.7168 20.0615 86.5479 19.6045 85.1416 19.6045C83.7441 19.6045 82.584 20.0615 81.6523 20.9756C80.7119 21.8984 80.2461 23.041 80.2461 24.4033C80.2461 25.7744 80.7119 26.917 81.6523 27.8398C82.584 28.7627 83.7441 29.2197 85.1416 29.2197C86.2578 29.2197 87.2422 28.9297 88.0947 28.3496C88.9473 27.7783 89.5361 27.0225 89.8701 26.082H87.6816C87.2686 26.8818 86.3105 27.4004 85.1592 27.4004C84.4648 27.4004 83.8672 27.1982 83.3662 26.7939C82.8652 26.3984 82.5488 25.8623 82.3994 25.1855H90.002C90.0371 24.9658 90.0547 24.7197 90.0547 24.4297ZM86.873 21.9951C87.374 22.373 87.708 22.8828 87.875 23.5244H82.417C82.584 22.8916 82.918 22.3818 83.4102 21.9951C83.9023 21.6172 84.4824 21.4238 85.1416 21.4238C85.8008 21.4238 86.3721 21.6172 86.873 21.9951ZM97.0771 19.6045C95.7236 19.6045 94.6426 20.1494 93.8428 21.2393V16.0361H91.8213V29H93.8428V27.5762C94.6426 28.6748 95.7236 29.2197 97.0771 29.2197C98.3604 29.2197 99.4326 28.7627 100.303 27.8398C101.164 26.917 101.595 25.7744 101.595 24.4033C101.595 23.041 101.164 21.8984 100.303 20.9756C99.4326 20.0615 98.3604 19.6045 97.0771 19.6045ZM94.6602 26.4512C94.1152 25.9062 93.8428 25.2207 93.8428 24.4033C93.8428 23.5859 94.1152 22.9092 94.6602 22.3643C95.2051 21.8193 95.8818 21.5469 96.6816 21.5469C97.4814 21.5469 98.1582 21.8193 98.7031 22.3643C99.2393 22.9092 99.5117 23.5859 99.5117 24.4033C99.5117 25.2207 99.2393 25.9062 98.7031 26.4512C98.1582 26.9961 97.4814 27.2686 96.6816 27.2686C95.8818 27.2686 95.2051 26.9961 94.6602 26.4512ZM107.817 29.2197C109.215 29.2197 110.384 28.7627 111.324 27.8398C112.265 26.917 112.73 25.7744 112.73 24.4033C112.73 23.041 112.265 21.8984 111.324 20.9756C110.384 20.0615 109.215 19.6045 107.817 19.6045C106.411 19.6045 105.242 20.0615 104.311 20.9756C103.37 21.8984 102.904 23.041 102.904 24.4033C102.904 25.7744 103.37 26.917 104.311 27.8398C105.242 28.7627 106.411 29.2197 107.817 29.2197ZM105.796 26.4512C105.242 25.9062 104.97 25.2207 104.97 24.4033C104.97 23.5859 105.242 22.9092 105.796 22.3643C106.341 21.8193 107.018 21.5469 107.817 21.5469C108.617 21.5469 109.294 21.8193 109.83 22.3643C110.366 22.9092 110.639 23.5859 110.639 24.4033C110.639 25.2207 110.366 25.9062 109.83 26.4512C109.294 26.9961 108.617 27.2686 107.817 27.2686C107.018 27.2686 106.341 26.9961 105.796 26.4512ZM118.909 29.2197C120.307 29.2197 121.476 28.7627 122.416 27.8398C123.356 26.917 123.822 25.7744 123.822 24.4033C123.822 23.041 123.356 21.8984 122.416 20.9756C121.476 20.0615 120.307 19.6045 118.909 19.6045C117.503 19.6045 116.334 20.0615 115.402 20.9756C114.462 21.8984 113.996 23.041 113.996 24.4033C113.996 25.7744 114.462 26.917 115.402 27.8398C116.334 28.7627 117.503 29.2197 118.909 29.2197ZM116.888 26.4512C116.334 25.9062 116.062 25.2207 116.062 24.4033C116.062 23.5859 116.334 22.9092 116.888 22.3643C117.433 21.8193 118.109 21.5469 118.909 21.5469C119.709 21.5469 120.386 21.8193 120.922 22.3643C121.458 22.9092 121.73 23.5859 121.73 24.4033C121.73 25.2207 121.458 25.9062 120.922 26.4512C120.386 26.9961 119.709 27.2686 118.909 27.2686C118.109 27.2686 117.433 26.9961 116.888 26.4512ZM129.553 24.3945L133.763 19.8242H131.205L127.663 23.5068V16.0361H125.642V29H127.663V25.1855L131.311 29H133.886L129.553 24.3945Z" fill="white"/>
</svg>
