<?xml version="1.0" encoding="utf-8"?>
<!-- Generator: Adobe Illustrator 25.0.0, SVG Export Plug-In . SVG Version: 6.00 Build 0)  -->
<svg version="1.1" id="Layer_1" xmlns="http://www.w3.org/2000/svg" xmlns:xlink="http://www.w3.org/1999/xlink" x="0px" y="0px"
	 viewBox="0 0 14.5 14.5" style="enable-background:new 0 0 14.5 14.5;" xml:space="preserve">
<style type="text/css">
	.st0{fill:#FFFFFF;}
</style>
<path class="st0" d="M7.2,0.2c1.9,0,3.6,0.7,4.9,2.1c1.3,1.3,2.1,3.1,2.1,4.9s-0.7,3.6-2.1,4.9c-1.3,1.3-3.1,2.1-4.9,2.1
	s-3.6-0.7-4.9-2.1C1,10.9,0.2,9.1,0.2,7.2S1,3.6,2.3,2.3C3.6,1,5.4,0.2,7.2,0.2z M7.2,6.4L5.6,4.8C5.5,4.6,5.3,4.6,5.2,4.6
	C5,4.6,4.9,4.6,4.8,4.8C4.6,4.9,4.6,5,4.6,5.2c0,0.2,0.1,0.3,0.2,0.4l1.6,1.6L4.8,8.9C4.7,8.9,4.7,9,4.6,9.1c0,0.1,0,0.2,0,0.2
	s0,0.2,0,0.2c0,0.1,0.1,0.1,0.1,0.2C4.8,9.8,4.9,9.8,5,9.8c0.1,0,0.2,0,0.2,0c0.1,0,0.2,0,0.2,0c0.1,0,0.1-0.1,0.2-0.1l1.6-1.6
	l1.6,1.6C8.9,9.8,9,9.8,9.1,9.8c0.1,0,0.2,0,0.2,0s0.2,0,0.2,0c0.1,0,0.1-0.1,0.2-0.1c0.1-0.1,0.1-0.1,0.1-0.2c0-0.1,0-0.2,0-0.2
	s0-0.2,0-0.2c0-0.1-0.1-0.1-0.1-0.2L8.1,7.2l1.6-1.6c0.1-0.1,0.1-0.1,0.1-0.2c0-0.1,0-0.2,0-0.2c0-0.1,0-0.2,0-0.2
	c0-0.1-0.1-0.1-0.1-0.2C9.7,4.7,9.6,4.7,9.5,4.6c-0.1,0-0.2,0-0.2,0s-0.2,0-0.2,0C9,4.7,8.9,4.7,8.9,4.8L7.2,6.4z"/>
</svg>
