<svg width="164" height="48" viewBox="0 0 164 48" fill="none" xmlns="http://www.w3.org/2000/svg">
<rect width="164" height="48" rx="7" fill="#25D366"/>
<path fill-rule="evenodd" clip-rule="evenodd" d="M35 16.375C33.125 14.5 30.625 13.5 28 13.5C22.5 13.5 18 18 18 23.5C18 25.25 18.5 27 19.375 28.5L18 33.5L23.25 32.125C24.75 32.875 26.375 33.375 28 33.375C33.5 33.375 38 28.875 38 23.375C38 20.75 36.875 18.25 35 16.375ZM28 31.75C26.5 31.75 25 31.375 23.75 30.625L23.5 30.5L20.375 31.375L21.25 28.375L21 28C20.125 26.625 19.75 25.125 19.75 23.625C19.75 19.125 23.5 15.375 28 15.375C30.25 15.375 32.25 16.25 33.875 17.75C35.5 19.375 36.25 21.375 36.25 23.625C36.25 28 32.625 31.75 28 31.75ZM32.5 25.5C32.25 25.375 31 24.75 30.75 24.75C30.5 24.625 30.375 24.625 30.25 24.875C30.125 25.125 29.625 25.625 29.5 25.875C29.375 26 29.25 26 29 26C28.75 25.875 28 25.625 27 24.75C26.25 24.125 25.75 23.25 25.625 23C25.5 22.75 25.625 22.625 25.75 22.5C25.875 22.375 26 22.25 26.125 22.125C26.25 22 26.25 21.875 26.375 21.75C26.5 21.625 26.375 21.5 26.375 21.375C26.375 21.25 25.875 20 25.625 19.5C25.5 19.125 25.25 19.125 25.125 19.125C25 19.125 24.875 19.125 24.625 19.125C24.5 19.125 24.25 19.125 24 19.375C23.75 19.625 23.125 20.25 23.125 21.5C23.125 22.75 24 23.875 24.125 24.125C24.25 24.25 25.875 26.875 28.375 27.875C30.5 28.75 30.875 28.5 31.375 28.5C31.875 28.5 32.875 27.875 33 27.375C33.25 26.75 33.25 26.25 33.125 26.25C33 25.625 32.75 25.625 32.5 25.5Z" fill="white"/>
<path d="M58.3086 26.1523L55.0742 16.5811H53.1055L49.8887 26.1172L46.6982 16.5811H44.3252L48.7725 29H50.9258L54.0635 19.7451L57.1924 29H59.3721L63.8018 16.5811H61.499L58.3086 26.1523ZM70.4463 19.6045C69.1191 19.6045 68.082 20.123 67.3525 21.1514V16.0361H65.3311V29H67.3525V23.9199C67.3525 23.2168 67.5723 22.6455 68.0205 22.2061C68.46 21.7666 69.0488 21.5469 69.7783 21.5469C70.4727 21.5469 71.0352 21.7578 71.4482 22.1797C71.8613 22.6104 72.0635 23.1729 72.0635 23.8848V29H74.0762V23.2256C74.0762 22.127 73.7422 21.248 73.083 20.5889C72.415 19.9297 71.5361 19.6045 70.4463 19.6045ZM83.5332 21.2393C82.7334 20.1494 81.6611 19.6045 80.3164 19.6045C79.0244 19.6045 77.9434 20.0615 77.0908 20.9756C76.2295 21.8984 75.7988 23.041 75.7988 24.4033C75.7988 25.7744 76.2295 26.917 77.0908 27.8398C77.9434 28.7627 79.0244 29.2197 80.3164 29.2197C81.6611 29.2109 82.7334 28.666 83.5332 27.5762V29H85.5547V19.8242H83.5332V21.2393ZM80.7119 27.2686C79.8945 27.2686 79.2178 26.9961 78.6816 26.4512C78.1367 25.9062 77.8643 25.2207 77.8643 24.4033C77.8643 23.5859 78.1367 22.9092 78.6816 22.3643C79.2178 21.8193 79.8945 21.5469 80.7119 21.5469C81.5117 21.5469 82.1885 21.8193 82.7246 22.3643C83.2607 22.9092 83.5332 23.5859 83.5332 24.4033C83.5332 25.2207 83.2607 25.9062 82.7246 26.4512C82.1885 26.9961 81.5117 27.2686 80.7119 27.2686ZM91.1445 19.8242V17.1172L89.123 17.5479V19.8242H87.2686V21.6523H89.123V29H91.1445V21.6523H93.1045V19.8242H91.1445ZM96.1455 21.3184L98.0352 16.5811H95.6533L94.3965 21.3184H96.1455ZM101.322 29.2197C102.245 29.2197 103.019 28.9561 103.643 28.4375C104.258 27.9189 104.565 27.207 104.565 26.3193C104.565 24.9131 103.669 23.9814 101.885 23.5244C100.777 23.252 100.224 22.8213 100.224 22.25C100.224 21.749 100.698 21.3535 101.27 21.3535C101.929 21.3535 102.386 21.8193 102.386 22.3906H104.442C104.442 21.6084 104.144 20.9492 103.546 20.4131C102.939 19.877 102.192 19.6045 101.287 19.6045C100.417 19.6045 99.6787 19.8506 99.0811 20.3516C98.4746 20.8525 98.1758 21.5205 98.1758 22.373C98.1758 23.8057 99.0811 24.7461 100.892 25.2031C101.973 25.4932 102.518 25.9238 102.518 26.4951C102.518 26.7676 102.403 27.0049 102.175 27.1895C101.938 27.374 101.665 27.4707 101.34 27.4707C100.997 27.4707 100.698 27.3564 100.461 27.1279C100.224 26.8994 100.101 26.627 100.101 26.3018H98.0527C98.0527 27.1191 98.3604 27.8047 98.9756 28.3672C99.5908 28.9385 100.373 29.2197 101.322 29.2197ZM122.029 29L117.134 16.5811H114.594L109.698 29H112.001L113.012 26.3545H118.663L119.665 29H122.029ZM115.833 18.9189L117.907 24.377H113.768L115.833 18.9189ZM128.735 19.6045C127.382 19.6045 126.301 20.1494 125.501 21.2393V19.8242H123.479V32.4189H125.501V27.5762C126.301 28.6748 127.382 29.2197 128.735 29.2197C130.019 29.2197 131.091 28.7627 131.961 27.8398C132.822 26.917 133.253 25.7744 133.253 24.4033C133.253 23.041 132.822 21.8984 131.961 20.9756C131.091 20.0615 130.019 19.6045 128.735 19.6045ZM126.318 26.4512C125.773 25.9062 125.501 25.2207 125.501 24.4033C125.501 23.5859 125.773 22.9092 126.318 22.3643C126.863 21.8193 127.54 21.5469 128.34 21.5469C129.14 21.5469 129.816 21.8193 130.361 22.3643C130.897 22.9092 131.17 23.5859 131.17 24.4033C131.17 25.2207 130.897 25.9062 130.361 26.4512C129.816 26.9961 129.14 27.2686 128.34 27.2686C127.54 27.2686 126.863 26.9961 126.318 26.4512ZM140.372 19.6045C139.019 19.6045 137.938 20.1494 137.138 21.2393V19.8242H135.116V32.4189H137.138V27.5762C137.938 28.6748 139.019 29.2197 140.372 29.2197C141.655 29.2197 142.728 28.7627 143.598 27.8398C144.459 26.917 144.89 25.7744 144.89 24.4033C144.89 23.041 144.459 21.8984 143.598 20.9756C142.728 20.0615 141.655 19.6045 140.372 19.6045ZM137.955 26.4512C137.41 25.9062 137.138 25.2207 137.138 24.4033C137.138 23.5859 137.41 22.9092 137.955 22.3643C138.5 21.8193 139.177 21.5469 139.977 21.5469C140.776 21.5469 141.453 21.8193 141.998 22.3643C142.534 22.9092 142.807 23.5859 142.807 24.4033C142.807 25.2207 142.534 25.9062 141.998 26.4512C141.453 26.9961 140.776 27.2686 139.977 27.2686C139.177 27.2686 138.5 26.9961 137.955 26.4512Z" fill="white"/>
</svg>
