<svg width="60" height="60" viewBox="0 0 60 60" fill="none" xmlns="http://www.w3.org/2000/svg">
<rect width="60" height="60" rx="6" fill="#3064A2"/>
<g clip-path="url(#clip0_2411_4917)">
<path d="M30 15C27.4155 15 25.3125 17.1655 25.3125 19.75C25.3125 22.3345 27.4155 24.4375 30 24.4375C32.5845 24.4375 34.6875 22.3345 34.6875 19.75C34.6875 17.1655 32.5845 15 30 15Z" fill="white"/>
<path d="M36.5625 31.9375C38.6306 31.9375 40.3125 30.2556 40.3125 28.1875C40.3125 26.1194 38.6306 24.4375 36.5625 24.4375C34.4944 24.4375 32.8125 26.1194 32.8125 28.1875C32.8125 30.2556 34.4944 31.9375 36.5625 31.9375Z" fill="white"/>
<path d="M14.9375 43.1875H15.875C16.9106 43.1875 17.75 42.3479 17.75 41.3125V30.0625C17.75 29.0269 16.9106 28.1875 15.875 28.1875H14.9375C14.4197 28.1875 14 28.6072 14 29.125V42.25C14 42.7678 14.4197 43.1875 14.9375 43.1875Z" fill="white"/>
<path d="M19.626 30.0625V41.3125C19.626 41.5015 19.5972 41.6826 19.5703 41.864L25.0405 44.5681C25.6878 44.8914 26.4131 45.0625 27.1362 45.0625C27.4238 45.0625 35.6048 45.0625 35.6048 45.0625C36.3015 45.0625 36.9827 44.8694 37.576 44.5032L45.252 39.0764C46.0787 38.4539 46.2471 37.2764 45.6265 36.4497C45.0635 35.6992 43.9724 35.374 43.0015 36.0754L37.231 39.3303C37.0965 39.4009 36.9473 39.4375 36.7952 39.4375C36.4573 39.4375 25.6609 39.4375 26.0635 39.4375C25.5452 39.4375 25.126 39.0183 25.126 38.5C25.126 37.9819 25.5452 37.5625 26.0635 37.5625H34.6885C35.7241 37.5625 36.5635 36.7229 36.5635 35.6875C36.5635 34.6519 35.7241 33.8125 34.6885 33.8125H30.2847L25.8408 30.8499C25.0691 30.3345 24.1699 30.0625 23.2407 30.0625H19.626Z" fill="white"/>
</g>
<defs>
<clipPath id="clip0_2411_4917">
<rect width="32" height="32" fill="white" transform="translate(14 14)"/>
</clipPath>
</defs>
</svg>
