<svg width="60" height="60" viewBox="0 0 60 60" fill="none" xmlns="http://www.w3.org/2000/svg">
<rect width="60" height="60" rx="6" fill="#3064A2"/>
<g clip-path="url(#clip0_3903_3983)">
<path d="M29.9996 21.2727C32.0079 21.2727 33.636 19.6446 33.636 17.6363C33.636 15.628 32.0079 14 29.9996 14C27.9913 14 26.3633 15.628 26.3633 17.6363C26.3633 19.6446 27.9913 21.2727 29.9996 21.2727Z" fill="white"/>
<path d="M25.0133 28.5455H34.9878C35.8471 28.5455 36.546 27.7912 36.546 26.8636V26.3977C36.546 25.1825 35.9444 24.0725 34.9749 23.5007C33.8137 22.816 32.0084 22 30.0005 22C27.9927 22 26.1873 22.8161 25.0261 23.5007C24.0566 24.0724 23.4551 25.1825 23.4551 26.3977V26.8636C23.4551 27.7912 24.1539 28.5455 25.0133 28.5455Z" fill="white"/>
<path d="M20.5445 38.7273C22.5528 38.7273 24.1809 37.0992 24.1809 35.0909C24.1809 33.0826 22.5528 31.4546 20.5445 31.4546C18.5362 31.4546 16.9082 33.0826 16.9082 35.0909C16.9082 37.0992 18.5362 38.7273 20.5445 38.7273Z" fill="white"/>
<path d="M25.5199 40.9553C24.3587 40.2706 22.5533 39.4546 20.5455 39.4546C18.5376 39.4546 16.7323 40.2707 15.571 40.9553C14.6016 41.527 14 42.637 14 43.8523V44.3181C14 45.2457 14.6989 46 15.5582 46H25.5327C26.3921 46 27.0909 45.2457 27.0909 44.3181V43.8523C27.0909 42.637 26.4893 41.527 25.5199 40.9553Z" fill="white"/>
<path d="M39.4547 38.7273C41.463 38.7273 43.091 37.0992 43.091 35.0909C43.091 33.0826 41.463 31.4546 39.4547 31.4546C37.4464 31.4546 35.8184 33.0826 35.8184 35.0909C35.8184 37.0992 37.4464 38.7273 39.4547 38.7273Z" fill="white"/>
<path d="M44.4281 40.9553C43.2669 40.2706 41.4615 39.4546 39.4537 39.4546C37.4458 39.4546 35.6405 40.2707 34.4792 40.9553C33.5098 41.527 32.9082 42.6371 32.9082 43.8523V44.3182C32.9082 45.2458 33.6071 46 34.4664 46H44.4409C45.3003 46 45.9991 45.2458 45.9991 44.3182V43.8523C45.9991 42.637 45.3975 41.527 44.4281 40.9553Z" fill="white"/>
<path d="M33.6361 38.7273C33.8498 38.7273 34.0608 38.6335 34.205 38.4545C34.4557 38.1406 34.4046 37.6832 34.0913 37.4318L30.7277 34.741V30.7273C30.7277 30.3253 30.4024 30 30.0004 30C29.5984 30 29.2731 30.3252 29.2731 30.7272V34.7414L25.9095 37.4318C25.5963 37.6832 25.5452 38.1406 25.7959 38.4545C25.9401 38.6335 26.151 38.7272 26.3648 38.7272C26.5238 38.7272 26.6844 38.6754 26.8186 38.5681L30.0004 36.0227L33.1822 38.5681C33.3165 38.6754 33.477 38.7273 33.6361 38.7273Z" fill="white"/>
</g>
<defs>
<clipPath id="clip0_3903_3983">
<rect width="32" height="32" fill="white" transform="translate(14 14)"/>
</clipPath>
</defs>
</svg>
