<?xml version="1.0" encoding="utf-8"?>
<!-- Generator: Adobe Illustrator 25.0.0, SVG Export Plug-In . SVG Version: 6.00 Build 0)  -->
<svg version="1.1" id="Layer_1" xmlns="http://www.w3.org/2000/svg" xmlns:xlink="http://www.w3.org/1999/xlink" x="0px" y="0px"
	 viewBox="0 0 50 47.6" style="enable-background:new 0 0 50 47.6;" xml:space="preserve">
<style type="text/css">
	.st0{fill:#0180C7;}
	.st1{fill:#0172B1;}
</style>
<g>
	<g>
		<path class="st0" d="M15.2,47.3c-2.9,0-5.9,0.1-8.8,0c-3.5-0.1-6.1-3.1-6.1-6.5c0-11.3,0-22.5,0-33.8c0-3.9,3-6.5,6.5-6.6
			c3.6-0.1,7.3,0,10.9,0c0.1,0,0.1,0,0.2,0.1c0,0.2-0.2,0.2-0.3,0.3c-2.1,1.3-4.1,2.8-5.7,4.6C9,8.4,7.2,11.9,6.5,16
			c-1.1,7.2,1.1,13.3,6.2,18.5c0.9,0.9,1,1.6,0.3,2.9c-0.9,1.5-2.2,2.5-3.6,3.4C9.3,40.8,9.1,40.9,9,41c-0.2,0.2-0.1,0.3,0.1,0.4
			c0.1,0.1,0.1,0.2,0.2,0.3c1.2,1.1,2.4,2.3,3.6,3.4c0.6,0.5,1.1,1.1,1.7,1.6C14.8,46.9,15.2,46.9,15.2,47.3z"/>
	</g>
	<g>
		<path class="st1" d="M15.2,47.3c-0.1-0.4-0.4-0.4-0.7-0.7c-0.6-0.6-1.1-1.1-1.7-1.6c-1.2-1.1-2.4-2.3-3.6-3.4
			c-0.1-0.1-0.1-0.2-0.2-0.3c2.8,0.5,5.4,0.2,8.1-0.6c0.9-0.3,1.8-0.5,2.7-0.8c0.6-0.2,1.2-0.1,1.9,0.1c6.8,2.4,13.6,2.1,20.2-0.8
			c2.7-1.2,5.2-2.9,7.3-5c0.1-0.1,0.2-0.3,0.4-0.3c0.1,0.2,0,0.3,0,0.5c0,2.1,0,4.2,0,6.3c0,3.6-2.9,6.5-6.5,6.6
			c-3.9,0-7.8,0-11.6,0c-5.2,0-10.4,0-15.6,0C15.7,47.3,15.5,47.3,15.2,47.3z"/>
	</g>
	<g>
		<path class="st0" d="M16.9,23.2c1.6,0,3.2,0,4.7,0c0.9,0,1.3,0.4,1.4,1c0.1,0.9-0.4,1.4-1.3,1.4c-1.7,0-3.5,0-5.2,0
			c-0.5,0-1,0-1.5,0c-0.6,0-1.2-0.2-1.5-0.8c-0.3-0.6-0.1-1.2,0.3-1.8c1.7-2.1,3.3-4.2,5-6.4c0.1-0.1,0.2-0.3,0.3-0.4
			c-0.1-0.2-0.3-0.1-0.4-0.1c-1.2,0-2.3,0-3.5,0c-0.3,0-0.5,0-0.8-0.1c-0.5-0.1-0.9-0.6-0.9-1.1c0-0.5,0.3-1,0.9-1.1
			c0.3-0.1,0.5-0.1,0.8-0.1c1.9,0,3.8,0,5.8,0c0.3,0,0.7,0,1,0.1c0.7,0.3,1.1,0.9,0.8,1.6c-0.3,0.6-0.7,1.1-1.1,1.7
			c-1.4,1.8-2.8,3.6-4.2,5.4C17.2,22.8,17.1,23,16.9,23.2z"/>
	</g>
	<g>
		<path class="st0" d="M29.4,17.5c0.3-0.3,0.5-0.6,1-0.7c0.8-0.2,1.7,0.4,1.7,1.2c0,2.2,0,4.3,0,6.5c0,0.6-0.4,1-0.9,1.2
			c-0.6,0.2-1.1,0.1-1.5-0.4c-0.2-0.2-0.3-0.3-0.5-0.1c-1,0.8-2.1,0.9-3.3,0.5c-1.9-0.6-2.7-2.1-2.9-4c-0.2-2,0.4-3.7,2.2-4.7
			C26.6,16.3,28.1,16.3,29.4,17.5z M25.6,21.5c0,0.4,0.1,0.9,0.5,1.3c0.7,0.9,2.1,0.9,2.8,0c0.6-0.8,0.6-2.2,0-3
			c-0.3-0.4-0.7-0.7-1.3-0.7C26.4,19,25.6,19.9,25.6,21.5z"/>
	</g>
	<g>
		<path class="st0" d="M36.9,21.5c-0.1-2.8,1.7-4.8,4.3-4.9c2.7-0.1,4.8,1.8,4.8,4.5c0.1,2.7-1.6,4.7-4.2,4.9
			C39.1,26.3,36.9,24.2,36.9,21.5z M39.6,21.3c0,0.6,0.1,1.1,0.5,1.5c0.7,0.9,2.1,0.9,2.8,0c0.6-0.8,0.6-2.2,0-3
			c-0.3-0.4-0.8-0.7-1.3-0.7C40.4,19,39.6,19.9,39.6,21.3z"/>
	</g>
	<g>
		<path class="st0" d="M36,19.4c0,1.7,0,3.3,0,5c0,1-0.8,1.6-1.8,1.4c-0.5-0.1-1-0.7-1-1.4c0-2.9,0-5.7,0-8.6c0-0.5,0-1,0-1.5
			c0-0.8,0.5-1.4,1.3-1.4c0.8,0,1.4,0.5,1.4,1.4C36,16,36,17.7,36,19.4z"/>
	</g>
	<g>
		<path class="st0" d="M42.7,47.2H7.3c-3.9,0-7.1-3.2-7.1-7.1V7.4c0-3.9,3.2-7.1,7.1-7.1h35.4c3.9,0,7.1,3.2,7.1,7.1v32.7
			C49.8,44,46.6,47.2,42.7,47.2z M7.3,0.5c-3.8,0-6.9,3.1-6.9,6.9v32.7c0,3.8,3.1,6.9,6.9,6.9h35.4c3.8,0,6.9-3.1,6.9-6.9V7.4
			c0-3.8-3.1-6.9-6.9-6.9H7.3z"/>
	</g>
</g>
</svg>
