<svg width="63" height="63" viewBox="0 0 63 63" fill="none" xmlns="http://www.w3.org/2000/svg">
<g clip-path="url(#clip0_5682_6820)">
<path d="M63 31.5C63 14.103 48.897 0 31.5 0C14.103 0 0 14.103 0 31.5C0 48.897 14.103 63 31.5 63C48.897 63 63 48.897 63 31.5Z" fill="#FDA362"/>
<path fill-rule="evenodd" clip-rule="evenodd" d="M25.3867 23.8063C25.3867 20.1841 28.321 17.2499 31.9432 17.2499C35.5654 17.2499 38.4997 20.1841 38.4997 23.8063V24.2035C38.4997 24.8998 37.9352 25.4644 37.2388 25.4644C36.5425 25.4644 35.978 24.8998 35.978 24.2035V23.8063C35.978 21.5769 34.1727 19.7716 31.9432 19.7716C29.7137 19.7716 27.9084 21.5769 27.9084 23.8063V30.4259C27.9084 31.1222 27.3439 31.6867 26.6476 31.6867C25.9512 31.6867 25.3867 31.1222 25.3867 30.4259V23.8063Z" fill="white"/>
<path fill-rule="evenodd" clip-rule="evenodd" d="M37.2409 29.165C37.9373 29.165 38.5018 29.7295 38.5018 30.4259V31.0879C38.5018 34.71 35.5675 37.6444 31.9453 37.6444C30.0311 37.6444 28.29 36.8249 27.0899 35.4933C26.6237 34.976 26.6651 34.1787 27.1824 33.7125C27.6997 33.2464 28.4969 33.2878 28.9631 33.8051C29.6959 34.6182 30.7615 35.1226 31.9453 35.1226C34.1747 35.1226 35.98 33.3173 35.98 31.0879V30.4259C35.98 29.7295 36.5445 29.165 37.2409 29.165Z" fill="white"/>
<path fill-rule="evenodd" clip-rule="evenodd" d="M42.073 27.3778C42.7694 27.3778 43.3339 27.9423 43.3339 28.6387V30.8893C43.3339 37.1726 38.2284 42.2781 31.9451 42.2781C28.9387 42.2781 26.2134 41.1155 24.1771 39.2279C23.6664 38.7545 23.6362 37.9567 24.1096 37.446C24.583 36.9353 25.3808 36.9051 25.8915 37.3785C27.4828 38.8536 29.6029 39.7563 31.9451 39.7563C36.8356 39.7563 40.8121 35.7798 40.8121 30.8893V28.6387C40.8121 27.9423 41.3766 27.3778 42.073 27.3778Z" fill="white"/>
<path fill-rule="evenodd" clip-rule="evenodd" d="M21.8156 27.3778C22.5119 27.3778 23.0764 27.9423 23.0764 28.6387V30.8893C23.0764 32.1231 23.3202 33.2797 23.7708 34.3425C24.0425 34.9836 23.7431 35.7236 23.102 35.9954C22.4609 36.2672 21.7208 35.9678 21.449 35.3267C20.8669 33.9535 20.5547 32.4623 20.5547 30.8893V28.6387C20.5547 27.9423 21.1192 27.3778 21.8156 27.3778Z" fill="white"/>
<path fill-rule="evenodd" clip-rule="evenodd" d="M43.52 18.731C44.0126 19.2232 44.0128 20.0215 43.5206 20.5141L22.1527 41.8952C21.6605 42.3878 20.8621 42.388 20.3696 41.8958C19.877 41.4035 19.8768 40.6052 20.369 40.1126L41.7369 18.7315C42.2291 18.239 43.0275 18.2387 43.52 18.731Z" fill="white"/>
<path fill-rule="evenodd" clip-rule="evenodd" d="M30.6202 18.5737C31.3166 18.5737 31.8811 19.1382 31.8811 19.8346V23.8063C31.8811 24.5027 31.3166 25.0672 30.6202 25.0672C29.9239 25.0672 29.3594 24.5027 29.3594 23.8063V19.8346C29.3594 19.1382 29.9239 18.5737 30.6202 18.5737Z" fill="white"/>
<path fill-rule="evenodd" clip-rule="evenodd" d="M31.9445 39.7565C32.6408 39.7565 33.2053 40.321 33.2053 41.0173V44.9891C33.2053 45.6854 32.6408 46.2499 31.9445 46.2499C31.2481 46.2499 30.6836 45.6854 30.6836 44.9891V41.0173C30.6836 40.321 31.2481 39.7565 31.9445 39.7565Z" fill="white"/>
</g>
<defs>
<clipPath id="clip0_5682_6820">
<rect width="63" height="63" fill="white"/>
</clipPath>
</defs>
</svg>
