<svg width="63" height="63" viewBox="0 0 63 63" fill="none" xmlns="http://www.w3.org/2000/svg">
<g clip-path="url(#clip0_5682_6804)">
<path d="M63 31.5C63 14.103 48.897 0 31.5 0C14.103 0 0 14.103 0 31.5C0 48.897 14.103 63 31.5 63C48.897 63 63 48.897 63 31.5Z" fill="#174799"/>
<mask id="mask0_5682_6804" style="mask-type:luminance" maskUnits="userSpaceOnUse" x="15" y="17" width="31" height="31">
<path d="M45.9987 17.0031H15.4297V47.572H45.9987V17.0031Z" fill="white"/>
</mask>
<g mask="url(#mask0_5682_6804)">
<path d="M42.0999 18.9419H19.9203C18.8174 18.9419 17.7597 19.3929 16.9798 20.1956C16.1999 20.9983 15.7617 22.087 15.7617 23.2222V40.3432C15.7617 41.4784 16.1999 42.5671 16.9798 43.3698C17.7597 44.1725 18.8174 44.6234 19.9203 44.6234H42.0999C43.2027 44.6234 44.2606 44.1725 45.0405 43.3698C45.8204 42.5671 46.2584 41.4784 46.2584 40.3432V23.2222C46.2584 22.087 45.8204 20.9983 45.0405 20.1956C44.2606 19.3929 43.2027 18.9419 42.0999 18.9419ZM43.4861 40.3432C43.4861 40.7216 43.34 41.0845 43.0801 41.352C42.8201 41.6196 42.4675 41.7699 42.0999 41.7699H19.9203C19.5527 41.7699 19.2001 41.6196 18.9401 41.352C18.6802 41.0845 18.5341 40.7216 18.5341 40.3432V23.2222C18.5341 22.8438 18.6802 22.4809 18.9401 22.2133C19.2001 21.9458 19.5527 21.7954 19.9203 21.7954H42.0999C42.4675 21.7954 42.8201 21.9458 43.0801 22.2133C43.34 22.4809 43.4861 22.8438 43.4861 23.2222V40.3432Z" fill="white"/>
</g>
<path d="M31.5 31.5L27 27M31.5 31.5L36 36M31.5 31.5L36 27M31.5 31.5L27 36" stroke="white" stroke-width="2.5" stroke-linecap="round" stroke-linejoin="round"/>
</g>
<defs>
<clipPath id="clip0_5682_6804">
<rect width="63" height="63" fill="white"/>
</clipPath>
</defs>
</svg>
