<svg width="63" height="63" viewBox="0 0 63 63" fill="none" xmlns="http://www.w3.org/2000/svg">
<g clip-path="url(#clip0_5682_6813)">
<path d="M63 31.5C63 14.103 48.897 0 31.5 0C14.103 0 0 14.103 0 31.5C0 48.897 14.103 63 31.5 63C48.897 63 63 48.897 63 31.5Z" fill="#0060FF"/>
<path fill-rule="evenodd" clip-rule="evenodd" d="M21.3887 23.3208C21.0065 23.703 20.6793 24.4853 20.6793 26.3429V36.6574C20.6793 37.7393 20.9514 38.6633 21.4758 39.2925C21.962 39.8759 22.8168 40.389 24.411 40.389H32.1529C34.0031 40.389 34.7869 40.0624 35.1716 39.6787C35.5554 39.2955 35.8846 38.5123 35.8846 36.6574V26.3429C35.8846 24.4853 35.5574 23.703 35.1752 23.3208C34.7929 22.9385 34.0105 22.6114 32.1529 22.6114H24.411C22.5534 22.6114 21.771 22.9385 21.3887 23.3208ZM19.3726 21.3046C20.6012 20.076 22.3975 19.76 24.411 19.76H32.1529C34.1664 19.76 35.9627 20.076 37.1913 21.3046C38.4198 22.5333 38.7358 24.3296 38.7358 26.3429V36.6574C38.7358 38.6737 38.4159 40.4691 37.1857 41.6968C35.9562 42.9238 34.1617 43.2403 32.1529 43.2403H24.411C22.134 43.2403 20.4102 42.4673 19.2856 41.1183C18.1992 39.815 17.8281 38.1604 17.8281 36.6574V26.3429C17.8281 24.3296 18.1441 22.5333 19.3726 21.3046Z" fill="white"/>
<path fill-rule="evenodd" clip-rule="evenodd" d="M41.5304 26.4092C41.5308 26.4089 41.5301 26.4093 41.5304 26.4092L38.7342 28.3705V34.6174L41.5327 36.5805L41.5361 36.5829C41.8289 36.7895 42.0374 36.8618 42.1496 36.8825C42.168 36.8858 42.183 36.8878 42.1948 36.8888C42.2011 36.8782 42.2085 36.8643 42.2167 36.8465C42.2649 36.7416 42.3263 36.5278 42.3263 36.1674V26.8329C42.3263 26.4726 42.2649 26.2586 42.2165 26.1532C42.2074 26.1336 42.1994 26.1186 42.1926 26.1074C42.18 26.1082 42.1636 26.1102 42.1431 26.1139C42.031 26.134 41.822 26.2057 41.5304 26.4092ZM43.5176 23.5695C44.7419 24.2086 45.1777 25.5544 45.1777 26.8329V36.1674C45.1777 37.4446 44.7423 38.7932 43.5149 39.4308C42.2872 40.0685 40.9351 39.6482 39.8935 38.9136C39.8929 38.9131 39.8924 38.9128 39.8918 38.9123L36.4898 36.526C36.1093 36.2592 35.8828 35.8236 35.8828 35.359V27.6292C35.8828 27.1644 36.1093 26.7289 36.4898 26.4619L39.8976 24.0717C40.9414 23.3425 42.2932 22.93 43.5176 23.5695Z" fill="white"/>
<path fill-rule="evenodd" clip-rule="evenodd" d="M30.8882 28.0257C30.6608 28.0257 30.4764 28.2101 30.4764 28.4375C30.4764 28.665 30.6608 28.8494 30.8882 28.8494C31.1157 28.8494 31.3001 28.665 31.3001 28.4375C31.3001 28.2101 31.1157 28.0257 30.8882 28.0257ZM27.625 28.4375C27.625 26.6354 29.086 25.1744 30.8882 25.1744C32.6904 25.1744 34.1513 26.6354 34.1513 28.4375C34.1513 30.2396 32.6904 31.7006 30.8882 31.7006C29.086 31.7006 27.625 30.2396 27.625 28.4375Z" fill="white"/>
<path d="M44.3189 18.9L18.8984 44.3363" stroke="white" stroke-width="2.25" stroke-linecap="round" stroke-linejoin="round"/>
</g>
<defs>
<clipPath id="clip0_5682_6813">
<rect width="63" height="63" fill="white"/>
</clipPath>
</defs>
</svg>
